<svg width="16" height="17" viewBox="0 0 16 17" fill="none" xmlns="http://www.w3.org/2000/svg">
<path d="M4.0548 5.35709L2.96858 4.17327L2.90101 4.23334C1.67007 5.38029 0.877141 6.92024 0.658538 8.58845C0.439934 10.2567 0.809311 11.9489 1.70317 13.3743C2.59703 14.7997 3.95953 15.8692 5.55644 16.3989C7.15335 16.9286 8.88492 16.8854 10.4535 16.2768C12.022 15.6682 13.3295 14.5322 14.1513 13.0641C14.973 11.5959 15.2577 9.88738 14.9562 8.23213C14.6548 6.57687 13.7861 5.07833 12.4996 3.99412C11.213 2.90991 9.58899 2.30775 7.90659 2.29117V0.766968L4.82065 3.16965L7.91911 5.56983V3.90046C9.03004 3.91921 10.1107 4.2659 11.0252 4.89695C11.9397 5.528 12.6472 6.41527 13.059 7.44725C13.4707 8.47924 13.5683 9.6099 13.3394 10.6972C13.1105 11.7844 12.5653 12.7798 11.7724 13.5581C10.9795 14.3365 9.97423 14.8631 8.88292 15.0719C7.79161 15.2806 6.66295 15.1622 5.63876 14.7314C4.61457 14.3006 3.74056 13.5767 3.12654 12.6507C2.51252 11.7247 2.1859 10.6378 2.18771 9.52674C2.18551 8.75258 2.34461 7.98644 2.65486 7.27716C2.96512 6.56788 3.41973 5.93102 3.98972 5.40714L4.0548 5.35709Z" fill="#B9B9B9"/>
</svg>
